<?xml version="1.0" standalone="no"?>
<!DOCTYPE svg PUBLIC "-//W3C//DTD SVG 20010904//EN"
 "http://www.w3.org/TR/2001/REC-SVG-20010904/DTD/svg10.dtd">
<svg version="1.0" xmlns="http://www.w3.org/2000/svg"
 width="263.000000pt" height="264.000000pt" viewBox="0 0 263.000000 264.000000"
 preserveAspectRatio="xMidYMid meet">
<metadata>
Created by potrace 1.16, written by Peter Selinger 2001-2019
</metadata>
<g transform="translate(0.000000,264.000000) scale(0.100000,-0.100000)"
fill="#000000" stroke="none">
<path d="M1853 2600 c-13 -5 -23 -13 -23 -17 0 -10 -54 -8 -94 2 -24 7 -32 4
-47 -16 -22 -28 -24 -43 -6 -33 10 6 10 4 0 -7 -9 -9 -16 -10 -24 -2 -15 15
-89 -5 -115 -31 -38 -39 -56 -73 -43 -81 6 -5 16 -1 21 9 15 27 28 18 25 -18
-1 -19 -5 -32 -9 -30 -3 2 -19 -1 -34 -7 -23 -8 -25 -12 -14 -19 12 -8 12 -10
1 -10 -8 0 -11 -7 -8 -20 4 -16 -6 -14 -72 21 -71 38 -81 41 -142 37 -65 -3
-71 -6 -405 -197 -187 -107 -347 -201 -356 -209 -27 -23 -23 -60 7 -68 21 -5
92 32 378 195 266 152 361 201 386 201 26 0 120 -49 385 -200 196 -112 359
-200 370 -198 27 4 44 34 30 55 -5 9 -50 39 -98 66 l-87 50 28 31 28 31 -32
-29 c-53 -48 -75 -3 -27 59 14 18 21 36 15 39 -14 9 -1 46 16 46 24 0 41 -23
32 -45 -4 -11 -8 -15 -8 -10 -1 6 -5 4 -10 -4 -7 -11 -2 -18 16 -28 21 -11 28
-11 34 -1 5 7 4 17 -1 22 -10 10 -2 36 11 36 5 0 9 -8 9 -19 0 -10 11 -26 25
-35 14 -9 25 -12 25 -6 0 5 8 10 18 9 10 0 12 -3 5 -6 -7 -2 -13 -11 -13 -18
0 -7 -7 -16 -16 -19 -9 -3 -12 -11 -8 -18 5 -8 2 -9 -9 -5 -21 8 -22 0 -3 -19
18 -18 30 -18 45 0 6 7 22 11 35 9 19 -4 25 1 34 25 10 28 9 30 -19 36 -17 3
-29 12 -29 21 0 12 6 15 20 10 19 -6 23 1 19 31 0 3 7 11 17 18 16 12 16 14
-1 39 -9 15 -13 27 -9 27 5 0 -2 9 -16 20 -15 11 -34 17 -46 14 -16 -4 -23 0
-27 15 -4 16 0 21 16 22 12 0 16 3 9 6 -6 2 -9 10 -6 15 16 26 12 60 -7 65
-10 3 -16 9 -13 14 3 5 2 19 -1 30 -5 16 -13 20 -31 16 -13 -2 -21 -1 -19 3 3
4 -2 13 -11 20 -12 10 -12 15 -2 21 9 6 7 10 -7 14 -11 4 -35 13 -53 21 -18 8
-34 14 -35 13 -1 0 -12 -4 -24 -9z"/>
<path d="M1250 2243 c-25 -10 -534 -304 -552 -321 -10 -8 -18 -21 -18 -28 0
-7 -17 -16 -37 -19 -92 -16 -133 -39 -133 -76 0 -54 144 -150 320 -214 66 -24
84 -26 150 -21 66 5 85 3 167 -25 95 -31 113 -43 95 -61 -8 -8 -39 -2 -107 19
-56 18 -98 27 -101 21 -8 -13 -9 -13 88 -42 90 -27 108 -40 89 -59 -8 -8 -33
-4 -94 16 -86 28 -117 33 -117 19 0 -5 41 -21 91 -37 94 -30 109 -39 90 -58
-7 -7 -38 -2 -108 18 -81 24 -106 36 -143 71 -35 33 -69 51 -145 78 -55 20
-101 36 -102 36 -2 0 -3 -60 -3 -133 0 -171 -5 -165 154 -169 l118 -3 -42 -52
c-43 -55 -48 -85 -16 -91 13 -3 35 12 67 47 l47 51 261 0 c288 0 262 6 323
-68 19 -23 35 -32 50 -30 37 5 33 36 -11 88 -23 27 -41 51 -41 54 0 3 54 6
120 6 163 0 160 -3 160 169 l0 129 -97 -34 c-70 -25 -109 -46 -139 -74 -98
-90 -284 -89 -284 1 0 71 112 126 232 115 62 -6 76 -3 157 28 164 64 268 129
291 185 11 27 10 34 -5 51 -18 20 -55 34 -115 44 -23 4 -39 14 -45 28 -6 14
-107 78 -282 179 -270 155 -304 172 -333 162z m260 -173 c35 -23 -20 -30 -237
-30 -214 0 -244 4 -228 30 8 13 445 13 465 0z m118 -72 c-4 -10 -85 -14 -351
-16 -304 -2 -347 0 -347 13 0 13 44 15 351 15 276 0 350 -3 347 -12z m112 -63
c0 -13 -58 -15 -459 -15 -253 0 -462 4 -465 9 -3 4 -3 11 1 15 3 3 213 6 465
6 400 0 458 -2 458 -15z m-762 -67 c8 -8 12 -54 12 -141 l0 -130 -62 6 c-35 2
-89 15 -120 27 l-58 21 0 103 c0 66 4 106 12 114 8 8 47 12 108 12 61 0 100
-4 108 -12z m280 -155 l2 -161 -61 19 c-33 10 -85 22 -115 25 l-54 7 0 132 c0
72 3 135 7 139 4 3 54 5 112 4 l106 -3 3 -162z m280 33 c3 -139 1 -145 -48
-146 -28 0 -126 -43 -152 -67 -15 -13 -17 -13 -27 6 -14 26 -14 296 0 322 9
18 19 19 117 17 l107 -3 3 -129z m272 115 c5 -11 10 -58 10 -105 l0 -86 -52
-26 c-36 -18 -75 -29 -120 -32 l-68 -5 0 121 c0 66 3 127 6 136 5 13 24 16
110 16 92 0 104 -2 114 -19z m-2 -548 c3 -10 -107 -13 -527 -13 -291 0 -532 4
-535 9 -3 4 -3 11 1 15 4 3 243 5 531 4 410 -2 526 -6 530 -15z"/>
<path d="M1015 1139 c-69 -61 -70 -157 -1 -217 47 -41 94 -48 151 -23 81 36
111 132 64 208 -27 44 -66 63 -128 63 -42 0 -56 -5 -86 -31z m144 -44 c49 -42
44 -112 -10 -140 -42 -22 -67 -18 -100 14 -33 33 -38 74 -13 109 32 46 80 53
123 17z"/>
<path d="M1355 1150 c-94 -62 -83 -205 19 -251 53 -24 70 -24 123 2 99 48 110
169 23 243 -40 33 -119 36 -165 6z m143 -66 c31 -36 29 -79 -7 -115 -33 -32
-58 -36 -100 -14 -65 33 -53 131 19 158 26 10 64 -3 88 -29z"/>
<path d="M1720 769 c0 -69 -1 -70 -22 -62 -13 4 -39 8 -59 8 -107 -2 -158
-141 -80 -219 28 -27 37 -31 84 -29 28 1 82 1 120 1 l67 1 0 185 0 186 -55 0
-55 0 0 -71z"/>
<path d="M420 645 l0 -175 60 0 60 0 0 44 0 44 53 6 c73 9 113 36 128 85 22
73 -6 135 -74 160 -16 6 -73 11 -128 11 l-99 0 0 -175z"/>
<path d="M785 712 c-26 -6 -30 -12 -33 -44 l-3 -36 37 8 c43 10 91 3 97 -14 3
-8 -14 -10 -57 -8 -72 4 -102 -13 -112 -64 -5 -24 0 -37 19 -60 22 -25 32 -29
74 -27 26 0 81 1 121 2 l72 0 0 80 c0 92 -12 126 -53 148 -34 17 -118 25 -162
15z"/>
<path d="M1173 705 c-18 -8 -33 -10 -33 -5 0 6 -25 10 -55 10 l-55 0 0 -120 0
-120 55 0 55 0 0 64 c0 70 8 82 58 92 30 6 32 9 32 50 0 49 -6 52 -57 29z"/>
<path d="M1285 712 c-26 -6 -30 -12 -33 -43 l-3 -37 42 8 c27 5 53 4 68 -3 23
-10 19 -12 -42 -17 -56 -4 -72 -9 -88 -29 -55 -68 17 -146 118 -126 21 4 64 7
96 6 l57 -2 0 80 c0 92 -12 126 -53 148 -34 17 -118 25 -162 15z"/>
<path d="M1925 711 c-26 -5 -30 -11 -33 -42 l-3 -37 42 8 c42 8 89 -2 89 -17
0 -5 -27 -6 -60 -5 -52 3 -62 1 -85 -22 -30 -31 -33 -78 -6 -105 24 -24 81
-36 118 -26 16 5 57 7 92 6 l64 -3 -5 91 c-4 82 -7 95 -30 117 -37 37 -109 51
-183 35z"/>
<path d="M1490 214 l0 -195 68 -1 c37 0 95 -1 129 -1 53 -2 65 1 87 22 33 31
51 88 42 137 -14 74 -96 120 -172 96 l-34 -10 0 74 0 74 -60 0 -60 0 0 -196z"/>
<path d="M551 386 c-84 -28 -131 -97 -131 -191 0 -45 28 -112 56 -137 53 -47
178 -63 249 -34 34 15 35 16 35 72 0 45 -3 55 -14 51 -117 -45 -196 -24 -196
52 0 20 4 41 8 47 23 35 98 44 157 20 l35 -15 0 60 c0 55 -2 60 -26 69 -46 18
-127 20 -173 6z"/>
<path d="M833 269 c-29 -8 -33 -14 -33 -44 l0 -34 49 6 c50 6 101 -2 101 -15
0 -4 -32 -7 -71 -7 -62 0 -73 -3 -90 -24 -29 -36 -25 -94 8 -121 23 -18 36
-21 83 -16 30 3 85 5 123 5 l67 0 0 85 c0 98 -12 131 -54 153 -37 19 -139 26
-183 12z"/>
<path d="M1253 265 c-18 -8 -33 -10 -33 -5 0 6 -27 10 -60 10 l-60 0 0 -125 0
-125 60 0 59 0 3 73 3 72 43 15 c41 14 42 16 42 57 0 47 -6 50 -57 28z"/>
<path d="M1915 266 c-50 -22 -68 -51 -73 -114 -3 -48 0 -62 19 -86 30 -38 76
-56 148 -56 84 0 111 12 111 49 l0 30 -74 -2 c-49 -1 -79 2 -87 11 -10 10 7
12 85 12 l99 0 -6 42 c-3 23 -14 53 -24 67 -41 55 -131 76 -198 47z"/>
<path d="M1330 145 l0 -125 60 0 60 0 0 125 0 125 -60 0 -60 0 0 -125z"/>
</g>
</svg>
